<svg viewBox="0 0 938 177" xmlns="http://www.w3.org/2000/svg"><defs><linearGradient id="b" x1="0%" x2="0%" y1="100%" y2="0%"><stop offset="0%" stop-color="#301934"/><stop offset="100%" stop-color="navy"/></linearGradient><filter id="a" width="938" height="177" x="0" y="0" filterUnits="userSpaceOnUse"><feOffset in="SourceAlpha"/><feGaussianBlur result="blurOut" stdDeviation="2.828"/><feFlood flood-color="#FFBF00" result="floodOut"/><feComposite in="floodOut" in2="blurOut" operator="atop"/><feComponentTransfer><feFuncA type="linear"/></feComponentTransfer><feMerge><feMergeNode/><feMergeNode in="SourceGraphic"/></feMerge></filter></defs><g filter="url(#a)"><path fill="#301934" fill-rule="evenodd" d="M914.3 164.372h-42.752l-1.369-2.653c-7.275 3.062-15.764 4.899-23.724 4.899-23.881 0-41.256-11.431-50.876-29.801-10.053-19.39-14.15-35.515-10.587-54.867 7.737-44.739 42.263-72.702 80.168-72.702 28.023 0 46.407 12.655 56.966 43.068 4.167 9.604 5.622 20.207 5.84 32.861L914.3 164.372zm-50.544-147.98c-32.976 0-63.946 25.31-71.62 65.558-6.306 39.151 15.454 63.848 49.009 63.848 12.655 0 26.173-4.898 33.352-12.042l-1.727 9.797h29.392l11.479-65.111h-63.274l-2.735 15.512h17.554c-2.929 7.348-8.355 12.655-16.646 12.655-8.854 0-15.93-5.829-13.133-24.659 2.843-16.979 11.535-25.756 21.536-25.756 8.777 0 14 5.103 13.978 14.492h43.475c3.729-33.883-13.516-54.294-50.64-54.294zm-101.293 95.32l20.107 52.66h-63.274l-6.774-13.675-1.753-5.103-3.311 18.778h-56.335l-6.978-13.675 24.543-139.203h65.928c23.881 0 39.791 8.164 48.043 34.29 3.231 7.144 3.893 16.125 1.914 27.351-3.095 17.553-10.117 29.596-22.11 38.577zm-29.071-93.279h-58.784l-22.059 125.12h43.067l7.233-41.026 15.831 41.026h47.558l-18.521-47.762c13.241-7.96 20.972-19.39 24.066-36.944 4.931-27.963-10.632-40.414-38.391-40.414zm-14.747 54.702H708.31l2.312-14.696h10.614c4.695 0 6.304 2.449 5.44 7.348-.863 4.899-3.336 7.348-8.031 7.348zm-77.412 31.637l2.93 6.532-9.356 53.068h-51.028c-25.106 0-43.129-11.226-52.545-29.596-10.053-19.39-13.753-34.29-10.442-53.068.488-2.77 1.079-5.49 1.764-8.158-2.108 6.056-5.346 11.714-9.928 16.322 6.858 12.043 7.162 22.452 5.228 29.392-5.398 30.617-27.344 45.108-54.899 45.108h-70.214l-6.978-13.675 24.543-139.203h73.276c20.819 0 32.335 8.776 39.362 31.433 3.003 6.573 3.304 13.675 1.829 22.044a57.682 57.682 0 01-.605 2.948c10.942-34.475 38.637-58.671 75.529-58.671 26.738 0 45.218 10.212 53.218 37.353 3.399 7.348 4.301 16.124 2.394 26.942-1.511 13.063-6.792 23.617-14.078 31.229zM482.36 18.433h-66.132l-22.059 125.12h63.478c23.677 0 42.777-12.247 48.023-38.577 1.448-11.634-1.436-23.064-11.354-28.167 9.845-4.899 16.464-15.308 17.67-26.126 3.274-18.574-5.745-32.25-29.626-32.25zm116.079-2.041c-37.148 0-63.882 27.759-70.504 65.316-5.955 38.781 15.427 61.845 50.738 61.845h44.292l7.215-40.006h-48.74c-6.52 0-12.2-7.143-9.825-21.839 3.131-17.758 11.306-25.922 23.144-25.922 5.511 0 7.637 1.837 7.061 5.102-.684 3.878-3.421 5.511-9.544 5.511H582.7c-3.463 4.491-4.963 8.369-6.186 15.309-1.692 9.593.266 14.696 3.677 17.862h14.083c29.392 0 43.581-15.005 48.008-40.11 5.074-28.78-13.022-43.068-43.843-43.068zM464.47 69.53h-14.099l1.943-11.22h13.676c3.266 0 4.37 1.558 3.723 5.232-.063 3.674-2.401 5.988-5.243 5.988zm-.251 27.63c-.72 4.82-3.325 5.979-8.019 5.979h-11.839l2.232-12.655h11.838c4.694 0 6.679 2.041 5.788 6.676zm-112.067 19.655l-8.384 47.557h-56.335l-6.978-13.675 24.543-139.203h92.258l5.573 14.696-15.978 90.625h-34.699zm-41.234-98.382l-22.059 125.12h43.067l8.349-47.354h34.699l5.146-29.079h-34.699l1.511-8.681h34.903l7.053-40.006h-77.97zm-26.546 73.072l3.735 7.756c-12.576 41.23-37.593 67.357-77.191 67.357-23.676 0-41.4-10.218-50.984-29.188-10.088-19.187-14.185-35.311-10.479-55.48 7.773-44.25 41.447-72.702 79.82-72.702 28.047 0 45.026 12.043 55.285 42.662 5.068 9.795 6.295 23.674 4.713 39.595h-4.899zM228.13 16.392c-34.407 0-64.551 25.106-71.533 65.558-7.341 40.784 15.127 63.848 49.213 63.848 35.516 0 57.352-20.819 67.3-54.089h-41.843c-3.348 8.573-10.467 14.084-18.403 14.084-10.41 0-15.244-8.633-12.995-23.843 2.843-16.979 11.33-25.756 21.739-25.756 8.777 0 13.184 5.103 13.57 14.492h42.032c3.131-33.883-12.865-54.294-49.08-54.294zm-94.365 147.98H80.492l-.865-2.041c-6.387 2.654-13.819 4.287-22.317 4.287-16.403 0-30.536-5.511-37.478-19.391-8.575-17.349-11.975-27.627-9.132-44.292 3.059-17.349 10.249-29.188 20.729-36.536l9.681-54.905h61.845c18.37 0 32.972 9.797 42.989 36.331 3.352 8.777 4.914 19.595 2.503 34.125l-14.682 82.422zM101.732 18.433H47.3l-7.323 40.006h37.76c10.614 0 14.721 4.49 11.554 22.452-3.779 21.432-9.745 26.33-24.441 26.33-4.695 0-6.196-3.061-5.656-5.241.612-4.352 3.049-6.597 7.743-6.597H80c1.969-3.062 3.97-7.144 4.392-14.492 2.519-14.288-.687-16.941-3.605-17.757H70.786c-27.351 0-47.58 9.389-52.942 39.801-5.686 32.25 12.65 42.863 34.081 42.863 15.365 0 27.065-4.898 31.791-12.45l-1.799 10.205h40.21l13.531-76.745c5.758-32.658-11.883-48.375-33.926-48.375z"/></g><path fill="url(#b)" d="M914.3 164.372h-42.752l-1.369-2.653c-7.275 3.062-15.764 4.899-23.724 4.899-23.881 0-41.256-11.431-50.876-29.801-10.053-19.39-14.15-35.515-10.587-54.867 7.737-44.739 42.263-72.702 80.168-72.702 28.023 0 46.407 12.655 56.966 43.068 4.167 9.604 5.622 20.207 5.84 32.861L914.3 164.372zm-50.544-147.98c-32.976 0-63.946 25.31-71.62 65.558-6.306 39.151 15.454 63.848 49.009 63.848 12.655 0 26.173-4.898 33.352-12.042l-1.727 9.797h29.392l11.479-65.111h-63.274l-2.735 15.512h17.554c-2.929 7.348-8.355 12.655-16.646 12.655-8.854 0-15.93-5.829-13.133-24.659 2.843-16.979 11.535-25.756 21.536-25.756 8.777 0 14 5.103 13.978 14.492h43.475c3.729-33.883-13.516-54.294-50.64-54.294zm-101.293 95.32l20.107 52.66h-63.274l-6.774-13.675-1.753-5.103-3.311 18.778h-56.335l-6.978-13.675 24.543-139.203h65.928c23.881 0 39.791 8.164 48.043 34.29 3.231 7.144 3.893 16.125 1.914 27.351-3.095 17.553-10.117 29.596-22.11 38.577zm-29.071-93.279h-58.784l-22.059 125.12h43.067l7.233-41.026 15.831 41.026h47.558l-18.521-47.762c13.241-7.96 20.972-19.39 24.066-36.944 4.931-27.963-10.632-40.414-38.391-40.414zm-14.747 54.702H708.31l2.312-14.696h10.614c4.695 0 6.304 2.449 5.44 7.348-.863 4.899-3.336 7.348-8.031 7.348zm-77.412 31.637l2.93 6.532-9.356 53.068h-51.028c-25.106 0-43.129-11.226-52.545-29.596-10.053-19.39-13.753-34.29-10.442-53.068.488-2.77 1.079-5.49 1.764-8.158-2.108 6.056-5.346 11.714-9.928 16.322 6.858 12.043 7.162 22.452 5.228 29.392-5.398 30.617-27.344 45.108-54.899 45.108h-70.214l-6.978-13.675 24.543-139.203h73.276c20.819 0 32.335 8.776 39.362 31.433 3.003 6.573 3.304 13.675 1.829 22.044a57.682 57.682 0 01-.605 2.948c10.942-34.475 38.637-58.671 75.529-58.671 26.738 0 45.218 10.212 53.218 37.353 3.399 7.348 4.301 16.124 2.394 26.942-1.511 13.063-6.792 23.617-14.078 31.229zM482.36 18.433h-66.132l-22.059 125.12h63.478c23.677 0 42.777-12.247 48.023-38.577 1.448-11.634-1.436-23.064-11.354-28.167 9.845-4.899 16.464-15.308 17.67-26.126 3.274-18.574-5.745-32.25-29.626-32.25zm116.079-2.041c-37.148 0-63.882 27.759-70.504 65.316-5.955 38.781 15.427 61.845 50.738 61.845h44.292l7.215-40.006h-48.74c-6.52 0-12.2-7.143-9.825-21.839 3.131-17.758 11.306-25.922 23.144-25.922 5.511 0 7.637 1.837 7.061 5.102-.684 3.878-3.421 5.511-9.544 5.511H582.7c-3.463 4.491-4.963 8.369-6.186 15.309-1.692 9.593.266 14.696 3.677 17.862h14.083c29.392 0 43.581-15.005 48.008-40.11 5.074-28.78-13.022-43.068-43.843-43.068zM464.47 69.53h-14.099l1.943-11.22h13.676c3.266 0 4.37 1.558 3.723 5.232-.063 3.674-2.401 5.988-5.243 5.988zm-.251 27.63c-.72 4.82-3.325 5.979-8.019 5.979h-11.839l2.232-12.655h11.838c4.694 0 6.679 2.041 5.788 6.676zm-112.067 19.655l-8.384 47.557h-56.335l-6.978-13.675 24.543-139.203h92.258l5.573 14.696-15.978 90.625h-34.699zm-41.234-98.382l-22.059 125.12h43.067l8.349-47.354h34.699l5.146-29.079h-34.699l1.511-8.681h34.903l7.053-40.006h-77.97zm-26.546 73.072l3.735 7.756c-12.576 41.23-37.593 67.357-77.191 67.357-23.676 0-41.4-10.218-50.984-29.188-10.088-19.187-14.185-35.311-10.479-55.48 7.773-44.25 41.447-72.702 79.82-72.702 28.047 0 45.026 12.043 55.285 42.662 5.068 9.795 6.295 23.674 4.713 39.595h-4.899zM228.13 16.392c-34.407 0-64.551 25.106-71.533 65.558-7.341 40.784 15.127 63.848 49.213 63.848 35.516 0 57.352-20.819 67.3-54.089h-41.843c-3.348 8.573-10.467 14.084-18.403 14.084-10.41 0-15.244-8.633-12.995-23.843 2.843-16.979 11.33-25.756 21.739-25.756 8.777 0 13.184 5.103 13.57 14.492h42.032c3.131-33.883-12.865-54.294-49.08-54.294zm-94.365 147.98H80.492l-.865-2.041c-6.387 2.654-13.819 4.287-22.317 4.287-16.403 0-30.536-5.511-37.478-19.391-8.575-17.349-11.975-27.627-9.132-44.292 3.059-17.349 10.249-29.188 20.729-36.536l9.681-54.905h61.845c18.37 0 32.972 9.797 42.989 36.331 3.352 8.777 4.914 19.595 2.503 34.125l-14.682 82.422zM101.732 18.433H47.3l-7.323 40.006h37.76c10.614 0 14.721 4.49 11.554 22.452-3.779 21.432-9.745 26.33-24.441 26.33-4.695 0-6.196-3.061-5.656-5.241.612-4.352 3.049-6.597 7.743-6.597H80c1.969-3.062 3.97-7.144 4.392-14.492 2.519-14.288-.687-16.941-3.605-17.757H70.786c-27.351 0-47.58 9.389-52.942 39.801-5.686 32.25 12.65 42.863 34.081 42.863 15.365 0 27.065-4.898 31.791-12.45l-1.799 10.205h40.21l13.531-76.745c5.758-32.658-11.883-48.375-33.926-48.375z"/></svg>